<svg width="360"
     height="100"
     fill="#fff"
     viewBox="0 0 95.25 26.458" xmlns="http://www.w3.org/2000/svg">
    <path
            d="M187.631 273.428q-.4-.56-.36-1.44.04-.88 1.04-1.52.64-.4 1.36-.32.72.04 1.4.72 1.16 1.16 2.44 1.8 1.28.64 3.2.64.6-.04 1.32-.16.72-.16 1.24-.64.56-.52.56-1.56 0-.88-.6-1.4-.6-.52-1.6-.88-.96-.36-2.16-.68-1.24-.36-2.56-.8-1.28-.44-2.36-1.12-1.08-.72-1.76-1.88-.68-1.16-.68-2.92 0-2 1.12-3.4t2.88-2.16q1.8-.76 3.76-.76 1.24 0 2.6.32 1.36.28 2.6.96 1.24.64 2.08 1.72.44.6.52 1.44.08.84-.76 1.52-.6.48-1.4.44-.8-.08-1.32-.56-.68-.88-1.84-1.4-1.12-.52-2.6-.52-.6 0-1.32.16-.68.12-1.2.6-.52.44-.52 1.44 0 .92.6 1.48.6.52 1.6.88 1.04.32 2.2.64 1.2.32 2.44.76t2.28 1.16q1.04.72 1.68 1.88.64 1.12.64 2.88 0 2.04-1.2 3.48t-3 2.2q-1.8.72-3.68.72-2.36 0-4.72-.8-2.36-.84-3.92-2.92zm38.16-18.48q1.04 0 1.72.68.68.68.68 1.76v16.92q0 1.04-.68 1.76-.68.68-1.72.68t-1.72-.68q-.68-.72-.68-1.76v-1.96l.88.36q0 .52-.56 1.28-.56.72-1.52 1.44t-2.28 1.24q-1.28.48-2.8.48-2.76 0-5-1.4-2.24-1.44-3.56-3.92-1.28-2.52-1.28-5.76 0-3.28 1.28-5.76 1.32-2.52 3.52-3.92 2.2-1.44 4.88-1.44 1.72 0 3.16.52 1.44.52 2.48 1.32 1.08.8 1.64 1.64.6.8.6 1.36l-1.44.52v-2.92q0-1.04.68-1.72.68-.72 1.72-.72zm-8.08 17.8q1.76 0 3.08-.88t2.04-2.4q.76-1.52.76-3.4 0-1.92-.76-3.44-.72-1.52-2.04-2.4-1.32-.88-3.08-.88-1.72 0-3.04.88t-2.08 2.4q-.72 1.52-.72 3.44 0 1.88.72 3.4.76 1.52 2.08 2.4 1.32.88 3.04.88zm16.16-17.4q.76 0 1.4.4.64.36.96 1.12l5.88 13.44-.88.4 6-13.8q.68-1.6 2.12-1.52 1 0 1.6.64.64.6.64 1.52 0 .28-.12.6-.08.32-.2.6l-7.48 16.48q-.64 1.44-2.04 1.52-.76.12-1.48-.28-.68-.4-1.04-1.24l-7.44-16.48q-.08-.2-.2-.52-.08-.32-.08-.76 0-.72.64-1.4.64-.72 1.72-.72zm31.2 21.8q-3.4 0-5.92-1.4-2.48-1.44-3.84-3.88-1.32-2.44-1.32-5.52 0-3.6 1.44-6.12 1.48-2.56 3.84-3.92 2.36-1.36 5-1.36 2.04 0 3.84.84 1.84.84 3.24 2.32 1.4 1.44 2.2 3.36.84 1.92.84 4.08-.04.96-.76 1.56-.72.6-1.68.6h-15.28l-1.2-4h14.68l-.88.8v-1.08q-.08-1.16-.84-2.08-.72-.92-1.84-1.44-1.08-.56-2.32-.56-1.2 0-2.24.32-1.04.32-1.8 1.08t-1.2 2.04q-.44 1.28-.44 3.24 0 2.16.88 3.68.92 1.48 2.32 2.28 1.44.76 3.04.76 1.48 0 2.36-.24.88-.24 1.4-.56.56-.36 1-.6.72-.36 1.36-.36.88 0 1.44.6.6.6.6 1.4 0 1.08-1.12 1.96-1.04.88-2.92 1.56-1.88.64-3.88.64zm23.2 0q-3.4 0-5.92-1.4-2.48-1.44-3.84-3.88-1.32-2.44-1.32-5.52 0-3.6 1.44-6.12 1.48-2.56 3.84-3.92 2.36-1.36 5-1.36 2.04 0 3.84.84 1.84.84 3.24 2.32 1.4 1.44 2.2 3.36.84 1.92.84 4.08-.04.96-.76 1.56-.72.6-1.68.6h-15.28l-1.2-4h14.68l-.88.8v-1.08q-.08-1.16-.84-2.08-.72-.92-1.84-1.44-1.08-.56-2.32-.56-1.2 0-2.24.32-1.04.32-1.8 1.08t-1.2 2.04q-.44 1.28-.44 3.24 0 2.16.88 3.68.92 1.48 2.32 2.28 1.44.76 3.04.76 1.48 0 2.36-.24.88-.24 1.4-.56.56-.36 1-.6.72-.36 1.36-.36.88 0 1.44.6.6.6.6 1.4 0 1.08-1.12 1.96-1.04.88-2.92 1.56-1.88.64-3.88.64z"
            transform="matrix(.75239 0 0 .75239 -134.776 -186.942)" />
    <path
            d="M67.818 3.811a2.876 2.876 0 0 1-2.876 2.876 2.876 2.876 0 0 1-2.877-2.876A2.876 2.876 0 0 1 64.942.932a2.876 2.876 0 0 1 2.876 2.879Z"
            transform="matrix(.6313 0 0 .6313 6.122 4.878)" />
</svg>
